<svg id="Icon" xmlns="http://www.w3.org/2000/svg" width="60%" height="auto" viewBox="0 0 98.832 88.747">
  <path id="Cloud" d="M68.635,56.475A15.906,15.906,0,0,0,84.713,40.784,15.906,15.906,0,0,0,68.635,25.092a16.5,16.5,0,0,0-4.347.578,8.068,8.068,0,0,1-9.322-4.136,24.5,24.5,0,0,0-8.938-9.715A25.149,25.149,0,0,0,15.264,15.2a23.839,23.839,0,0,0-.023,34.114,24.831,24.831,0,0,0,17.47,7.158H68.635m0,8.068H32.7C14.633,64.492,0,50.063,0,32.272,0,14.448,14.683,0,32.8,0A32.851,32.851,0,0,1,62.163,17.888a24.542,24.542,0,0,1,6.472-.863,23.762,23.762,0,1,1,0,47.519Z" transform="translate(0 24.204)" />
  <path id="Ellipse_3" data-name="Ellipse 3" d="M3.025,0A20.972,20.972,0,0,1,24,20.972h0s0,.01,0,.015v0S24,21,24,21v.021c0,.006,0,.01,0,.015v.05h0v.3h0v.421h0v.117h0v.218l0,.031v.034h0v.016h0v.034l0,.032v.034h0v.051l0,.031v.051h0V22.5l0,.032v.05h0v.034l0,.032v.034l0,.031v.019l0,.032V22.8l0,.032v.034h0v.016h0v.033l0,.032v.034l0,.016h0v.034l0,.032V23.1h0l0,.016v.035l0,.031v.035l0,.016h0l0,.015v.019l0,.032h0l0,.014v0l0,.014h0l0,.032v0l0,.014v0l0,.032h0l0,.015v0l0,.015h0l0,.032h0l0,.015v0l-.006.048v0l0,.015h0l0,.032h0l0,.015v0l0,.032h0l0,.015v0l0,.015h0l0,.032h0l0,.014v0l-.006.048v0l0,.015h0l-.007.048v0l-.007.048h0l0,.015h0l-.007.048h0l0,.016h0l0,.032h0l0,.015h0l-.007.048h0l-.01.065h0l-.007.048h0a20.82,20.82,0,0,1-1.776,5.781h0l-.02.043h0l-.027.056v0l-.02.042h0l-.007.014h0l-.021.042h0l-.007.014h0l-.014.028h0l-.007.014h0l-.021.042h0l-.007.013h0l-.014.028h0l-.006.013v0l-.021.042h0l-.007.014h0l-.014.028h0l-.007.013h0l-.021.041v0l-.006.012h0l-.014.027v0l-.006.011,0,0-.006.012h0l-.014.027v0l-.006.011v0l-.014.026,0,0-.005.01,0,0-.005.01,0,0-.007.013h0l-.007.013v0l-.006.011,0,0-.006.012h0l-.007.013v0l-.006.011,0,0-.005.01,0,0-.014.026,0,0-.005.01,0,0-.006.012h0l-.007.013,0,0-.005.01,0,0-.005.009,0,0-.007.013h0l-.006.012,0,0,0,.008,0,0,0,.009,0,0L21.5,30.9l0,0,0,.009,0,0,0,.009,0,0-.005.01,0,.005-.005.01,0,.006,0,.007,0,.006-.007.012L21.452,31l0,0,0,.008,0,.005,0,.007,0,.005-.005.009,0,0-.006.012,0,0,0,.008,0,0,0,.008,0,0-.007.012,0,0-.005.009,0,.005,0,.008,0,.005,0,.008,0,0-.007.012,0,0,0,.007,0,.006,0,.007,0,.005,0,.007-.006.011,0,.005,0,.007,0,.006,0,.007,0,.006,0,.008,0,.009,0,.006,0,.006,0,.006,0,.007,0,.006,0,.007-.006.011,0,0,0,.007,0,.005,0,.007,0,.006,0,.007-.006.011,0,.006,0,.006,0,.007,0,0,0,.007,0,0-.008.013,0,0,0,.007,0,0,0,.008,0,0-.015.026,0,0,0,.008,0,0,0,.008,0,0-.01.017v0l0,.008,0,0,0,.008,0,0-.016.027,0,0,0,.008,0,0,0,.008,0,0-.011.018h0l0,.008,0,0,0,.008,0,0-.017.029h0l-.005.009,0,0-.005.009h0l-.017.029,0,0,0,.008,0,0-.017.028v0l-.005.009,0,0-.005.009v0L21,31.787v0l-.006.009v0l-.025.041h0l-.025.042h0l-.006.01h0l-.026.042h0l-.032.052h0q-.35.566-.735,1.108-.31.436-.641.856h0L19.462,34h0l-.029.037,0,0-.007.009h0l-.022.027h0l-.007.008v0l-.029.036,0,0-.007.008,0,0-.021.025,0,0-.006.008,0,0-.006.007,0,0L19.3,34.2v0l-.006.007,0,0-.006.007,0,0-.006.007h0l-.013.016,0,0-.006.007,0,0-.005.007,0,0-.011.013,0,0-.006.007,0,0-.005.007,0,0-.018.022-.008.01,0,.005-.009.01-.008.01-.009.011-.009.011-.009.011,0,0-.008.01-.009.011-.009.011-.005.006,0,0-.008.01-.009.011-.009.011,0,0-.007.009,0,0-.007.008-.009.011,0,0-.006.007,0,0-.009.01,0,0-.006.007-.01.012,0,0-.008.01h0l-.009.011,0,0-.007.008,0,0-.007.008,0,0-.009.011,0,0-.008.009,0,0-.007.008,0,0-.008.01h0l-.009.011,0,0-.007.008,0,0-.006.007,0,0-.009.011h0l-.009.01,0,0-.007.009,0,0-.008.01h0l-.01.011,0,0-.008.009,0,0-.008.009v0l-.02.022,0,0-.008.009,0,0-.02.022v0l-.009.01,0,0-.009.01h0l-.02.023,0,0-.008.009,0,0-.03.034h0l-.031.035h0l-.01.011h0l-.031.034h0l-.01.011h0l-.021.023h0l-.01.011h0l-.031.034h0l-.042.046h0a21,21,0,0,1-8.214,5.515A3.025,3.025,0,0,1,8.184,34.98a14.9,14.9,0,0,0,7.022-5.386,14.815,14.815,0,0,0,2.741-8.622A14.938,14.938,0,0,0,3.025,6.051,3.025,3.025,0,0,1,3.025,0Z" transform="translate(48.227 21.897) rotate(-54)" />
  <circle id="Ellipse_4" data-name="Ellipse 4" cx="3.025" cy="3.025" r="3.025" transform="translate(68.577)" />
  <circle id="Ellipse_7" data-name="Ellipse 7" cx="3.025" cy="3.025" r="3.025" transform="translate(86.73 6.051)" />
  <circle id="Ellipse_5" data-name="Ellipse 5" cx="3.025" cy="3.025" r="3.025" transform="translate(48.407 4.034)" />
  <circle id="Ellipse_6" data-name="Ellipse 6" cx="3.025" cy="3.025" r="3.025" transform="translate(92.781 26.221)" />
</svg>