<svg id="Icon" xmlns="http://www.w3.org/2000/svg" width="60%" height="100%" viewBox="0 0 98.832 88.747">
  <path id="Cloud" d="M68.635,56.475A15.906,15.906,0,0,0,84.713,40.784,15.906,15.906,0,0,0,68.635,25.092a16.5,16.5,0,0,0-4.347.578,8.068,8.068,0,0,1-9.322-4.136,24.5,24.5,0,0,0-8.938-9.715A25.149,25.149,0,0,0,15.264,15.2a23.839,23.839,0,0,0-.023,34.114,24.831,24.831,0,0,0,17.47,7.158H68.635m0,8.068H32.7C14.633,64.492,0,50.063,0,32.272,0,14.448,14.683,0,32.8,0A32.851,32.851,0,0,1,62.163,17.888a24.542,24.542,0,0,1,6.472-.863,23.762,23.762,0,1,1,0,47.519Z" transform="translate(0 24.204)" />
</svg>