<svg xmlns="http://www.w3.org/2000/svg" width="60%" height="auto" viewBox="0 0 92.781 101.203">
  <g id="Icon" transform="translate(0 -24.204)">
    <path id="Cloud" d="M68.635,56.475A15.906,15.906,0,0,0,84.713,40.784,15.906,15.906,0,0,0,68.635,25.092a16.5,16.5,0,0,0-4.347.578,8.068,8.068,0,0,1-9.322-4.136,24.5,24.5,0,0,0-8.938-9.715A25.149,25.149,0,0,0,15.264,15.2a23.839,23.839,0,0,0-.023,34.114,24.831,24.831,0,0,0,17.47,7.158H68.635m0,8.068H32.7C14.633,64.492,0,50.063,0,32.272,0,14.448,14.683,0,32.8,0A32.851,32.851,0,0,1,62.163,17.888a24.542,24.542,0,0,1,6.472-.863,23.762,23.762,0,1,1,0,47.519Z" transform="translate(0 24.204)" />
    <path id="Path_7" data-name="Path 7" d="M-.031,9.493a3.02,3.02,0,0,1-1.01-.174A3.025,3.025,0,0,1-2.883,5.457L-1.134.516a3.025,3.025,0,0,1,5.7,2.019L2.821,7.476A3.027,3.027,0,0,1-.031,9.493Z" transform="translate(31.682 96.125)" />
    <path id="Path_9" data-name="Path 9" d="M-1.252,20.3a3.029,3.029,0,0,1-.784-.1,3.025,3.025,0,0,1-2.14-3.7l.042-.158a3.025,3.025,0,0,1,3.7-2.14,3.025,3.025,0,0,1,2.14,3.7l-.042.158A3.027,3.027,0,0,1-1.252,20.3ZM.877,12.345A3.028,3.028,0,0,1-2.047,8.537L.039.743A3.025,3.025,0,1,1,5.885,2.308L3.8,10.1A3.027,3.027,0,0,1,.877,12.345Z" transform="translate(61.509 96.125)" />
    <path id="Path_8" data-name="Path 8" d="M-2.946,29.281a3.027,3.027,0,0,1-.844-.12,3.025,3.025,0,0,1-2.064-3.748l2.114-7.294A3.025,3.025,0,0,1,.009,16.055,3.025,3.025,0,0,1,2.073,19.8L-.041,27.1A3.027,3.027,0,0,1-2.946,29.281ZM1.976,12.3A3.028,3.028,0,0,1-.931,8.433L1.315.684A3.025,3.025,0,1,1,7.127,2.368L4.881,10.117A3.027,3.027,0,0,1,1.976,12.3Z" transform="translate(44.715 96.125)" />
  </g>
</svg>
