<svg id="Sun" xmlns="http://www.w3.org/2000/svg" width="60%" height="auto" viewBox="0 0 86.56 86.662">
  <path id="Ellipse_8" data-name="Ellipse 8" d="M27.229,8.068A19.161,19.161,0,1,0,46.39,27.229,19.183,19.183,0,0,0,27.229,8.068m0-8.068A27.229,27.229,0,1,1,0,27.229,27.229,27.229,0,0,1,27.229,0Z" transform="translate(15.983 16.136)" />
  <path id="Ellipse_9" data-name="Ellipse 9" d="M39.287-4H39.3a4.034,4.034,0,0,1,0,8.068h-.012a4.034,4.034,0,0,1,0-8.068ZM67.508,7.934A4.021,4.021,0,0,1,70.4,9.159l.009.01a4.034,4.034,0,0,1-5.79,5.618l-.008-.008a4.034,4.034,0,0,1,2.894-6.844ZM78.6,36.5l.12,0a4.033,4.033,0,0,1,3.914,4.15v.014a4.034,4.034,0,0,1-8.064-.237v-.016A4.035,4.035,0,0,1,78.6,36.5ZM65.835,64.351A4.034,4.034,0,0,1,68.56,71.36l-.01.009A4.034,4.034,0,0,1,63.1,65.416l.006-.005.007-.006A4.021,4.021,0,0,1,65.835,64.351ZM36.945,74.593q.119,0,.24.007H37.2a4.034,4.034,0,0,1-.471,8.054h-.014a4.034,4.034,0,0,1,.234-8.061ZM9.484,61a4.025,4.025,0,0,1,3.057,1.4l.01.011A4.034,4.034,0,0,1,6.44,67.676l-.009-.01A4.034,4.034,0,0,1,9.484,61ZM.106,31.828q.179,0,.36.016a4.035,4.035,0,0,1,3.664,4.373v.011a4.034,4.034,0,1,1-8.037-.708v-.014A4.034,4.034,0,0,1,.106,31.828ZM14.512,4.781a4.034,4.034,0,0,1,2.55,7.162l-.014.011a4.034,4.034,0,1,1-5.087-6.262l.011-.009A4.017,4.017,0,0,1,14.512,4.781Z" transform="translate(3.924 4)" />
</svg>
